<svg xmlns="http://www.w3.org/2000/svg" width="452.536" height="421.245" viewBox="0 0 452.536 421.245">
  <g id="_599" data-name="599" transform="translate(-178.984 -109.389)">
    <g id="OBJECTS" transform="translate(178.984 127)">
      <g id="Group_126" data-name="Group 126">
        <g id="Group_125" data-name="Group 125">
          <g id="Group_118" data-name="Group 118" transform="translate(20.133)">
            <path id="Path_52" data-name="Path 52" d="M446.948,207.714c-1.126,0-4.022-.161-8.2-.483a217,217,0,0,1-83.487-22.842c-22.038-11.1-51.315-15.764-67.24-11.582h-.161a10.756,10.756,0,0,1-13.191-7.721c-3.7-13.673-22.038-23.486-41.341-23.486-23.164,0-41.824,13.03-41.824,28.955,0,6.756,3.378,13.03,9.008,17.856,15.925,13.995,24.773,34.424,22.842,55.658a56.835,56.835,0,0,0,.8,16.569,40.9,40.9,0,0,0,2.252,7.56c6.113,15.6,30.081,34.746,31.529,49.224C269.2,429.06,298.473,469.6,405.928,485.522c107.295,15.925,203.651-33.459,214.911-110.351C632.1,298.6,613.762,209.966,446.948,207.714Z" transform="translate(-191.5 -118.114)" fill="#e1f3ff"/>
            <path id="Path_53" data-name="Path 53" d="M281.8,135.365a9.125,9.125,0,0,1-5.791-2.9A18.91,18.91,0,0,0,262.334,127c-9.652,0-17.534,6.6-17.534,14.638s7.882,14.638,17.534,14.638a19.353,19.353,0,0,0,12.225-4.182,7.877,7.877,0,0,1,5.63-1.448,7.638,7.638,0,0,0,8.365-7.561A7.818,7.818,0,0,0,281.8,135.365Z" transform="translate(-159.061 -127)" fill="#e1f3ff"/>
            <path id="Path_54" data-name="Path 54" d="M285.86,151.382c0,2.252-2.574,4.182-5.63,4.182-3.217,0-5.63-1.769-5.63-4.182,0-2.252,2.574-4.182,5.63-4.182C283.447,147.2,285.86,149.13,285.86,151.382Z" transform="translate(-140.924 -114.706)" fill="#e1f3ff"/>
            <path id="Path_55" data-name="Path 55" d="M427.529,182.239c0,4.022-5.469,7.239-12.065,7.239S403.4,186.26,403.4,182.239,408.869,175,415.465,175C422.221,175,427.529,178.217,427.529,182.239Z" transform="translate(-62.534 -97.786)" fill="#e1f3ff"/>
            <path id="Path_56" data-name="Path 56" d="M427.8,172.9a3.7,3.7,0,1,1-3.7-3.7A3.742,3.742,0,0,1,427.8,172.9Z" transform="translate(-52.188 -101.316)" fill="#e1f3ff"/>
            <g id="Group_26088" data-name="Group 26088" transform="matrix(0.966, -0.259, 0.259, 0.966, 105.251, 291.949)">
              <path id="Path_63342" data-name="Path 63342" d="M126.549,33.723l-18.2,69.024a6.991,6.991,0,0,1-8.55,4.983L5.217,82.792A7,7,0,0,1,.233,74.24l18.2-69.023A6.994,6.994,0,0,1,26.984.234l94.582,24.935A7,7,0,0,1,126.549,33.723Z" transform="translate(2.448 4.376)" fill="#87d8f9" opacity="0.421"/>
              <path id="Path_63343" data-name="Path 63343" d="M112.153,33.723l-4.038,15.312L0,20.53,4.036,5.217A6.994,6.994,0,0,1,12.588.234L107.17,25.169A7,7,0,0,1,112.153,33.723Z" transform="translate(16.844 4.376)" fill="#87d8f9"/>
              <rect id="Rectangle_5522" data-name="Rectangle 5522" width="111.811" height="5.15" transform="translate(16.844 24.905) rotate(14.771)" fill="#fff"/>
              <path id="Path_63344" data-name="Path 63344" d="M16.47,10.508A8.372,8.372,0,1,1,10.509.278,8.371,8.371,0,0,1,16.47,10.508Z" transform="translate(37.495 9.349)" fill="#afe6ff"/>
              <path id="Path_63345" data-name="Path 63345" d="M16.467,10.507A8.37,8.37,0,1,1,10.507.279,8.372,8.372,0,0,1,16.467,10.507Z" transform="translate(94.875 24.479)" fill="#afe6ff"/>
              <g id="Group_23307" data-name="Group 23307" transform="translate(40.144 0)">
                <path id="Path_63346" data-name="Path 63346" d="M5.779,23.445a5.558,5.558,0,0,1-1.511-.189A5.717,5.717,0,0,1,.191,16.266L3.352,4.274A5.722,5.722,0,1,1,14.419,7.189L11.259,19.18A5.716,5.716,0,0,1,5.779,23.445Z" transform="translate(0 0)" fill="#fff"/>
                <path id="Path_63347" data-name="Path 63347" d="M5.781,23.45A5.726,5.726,0,0,1,.191,16.264l3.163-12A5.724,5.724,0,0,1,14.424,7.191l-3.163,12A5.728,5.728,0,0,1,5.781,23.45Z" transform="translate(57.377 15.128)" fill="#fff"/>
              </g>
              <rect id="Rectangle_5523" data-name="Rectangle 5523" width="10.878" height="9.238" transform="matrix(0.967, 0.255, -0.255, 0.967, 25.748, 41.745)" fill="#fff"/>
              <rect id="Rectangle_5524" data-name="Rectangle 5524" width="10.879" height="9.238" transform="matrix(0.967, 0.255, -0.255, 0.967, 98.392, 60.898)" fill="#fff"/>
              <rect id="Rectangle_5525" data-name="Rectangle 5525" width="10.877" height="9.237" transform="matrix(0.967, 0.255, -0.255, 0.967, 80.231, 56.11)" fill="#fff"/>
              <rect id="Rectangle_5526" data-name="Rectangle 5526" width="10.878" height="9.238" transform="matrix(0.967, 0.255, -0.255, 0.967, 62.069, 51.322)" fill="#fff"/>
              <rect id="Rectangle_5527" data-name="Rectangle 5527" width="10.879" height="9.238" transform="translate(43.909 46.534) rotate(14.77)" fill="#e1f3ff"/>
              <rect id="Rectangle_5528" data-name="Rectangle 5528" width="10.878" height="9.237" transform="translate(21.92 56.261) rotate(14.763)" fill="#e1f3ff"/>
              <rect id="Rectangle_5529" data-name="Rectangle 5529" width="10.878" height="9.237" transform="matrix(0.967, 0.255, -0.255, 0.967, 94.565, 75.414)" fill="#fff"/>
              <rect id="Rectangle_5530" data-name="Rectangle 5530" width="10.878" height="9.238" transform="translate(76.404 70.625) rotate(14.772)" fill="#fff"/>
              <rect id="Rectangle_5531" data-name="Rectangle 5531" width="10.878" height="9.238" transform="matrix(0.967, 0.255, -0.255, 0.967, 58.243, 65.836)" fill="#fff"/>
              <rect id="Rectangle_5532" data-name="Rectangle 5532" width="10.878" height="9.238" transform="translate(40.082 61.048) rotate(14.772)" fill="#fff"/>
              <rect id="Rectangle_5533" data-name="Rectangle 5533" width="10.878" height="9.237" transform="matrix(0.967, 0.255, -0.255, 0.967, 18.094, 70.775)" fill="#fff"/>
              <rect id="Rectangle_5534" data-name="Rectangle 5534" width="10.878" height="9.238" transform="translate(90.739 89.927) rotate(14.771)" fill="#5968f6"/>
              <rect id="Rectangle_5535" data-name="Rectangle 5535" width="10.878" height="9.238" transform="translate(72.576 85.14) rotate(14.763)" fill="#fff"/>
              <rect id="Rectangle_5536" data-name="Rectangle 5536" width="10.878" height="9.238" transform="translate(54.416 80.352) rotate(14.772)" fill="#fff"/>
              <rect id="Rectangle_5537" data-name="Rectangle 5537" width="10.878" height="9.237" transform="translate(36.255 75.563) rotate(14.772)" fill="#fff"/>
              <text id="_30" data-name="30" transform="matrix(0.966, 0.259, -0.259, 0.966, 89.504, 97.119)" fill="#fff" font-size="9" font-family="SourceSansPro-Bold, Source Sans Pro" font-weight="700"><tspan x="0" y="0">30</tspan></text>
            </g>
          </g>
          <g id="Group_119" data-name="Group 119" transform="translate(0 201.56)">
            <path id="Path_57" data-name="Path 57" d="M224.372,326.5c-1.126-8.043-2.735-20.751-10.617-30.725C201.53,280.335,179.17,277.6,179.17,277.6s-2.413,22.36,10.134,37.8c6.756,8.365,20.912,14.478,28.794,17.051a8.111,8.111,0,0,1,5.63,7.721c-.8,53.728-9.008,79.466-9.008,79.466l7.882-.965C229.359,360.444,225.981,337.762,224.372,326.5Z" transform="translate(-178.984 -236.902)" fill="#e1f3ff"/>
            <path id="Path_58" data-name="Path 58" d="M225.925,315.493c2.091-6.6,5.469-17.212,13.673-24.29,12.708-11.26,31.851-10.3,31.851-10.3s-1.448,19.143-14.156,30.4c-6.917,6.113-19.786,9.169-26.864,9.973a7,7,0,0,0-5.952,5.791c-7.4,45.524-4.182,68.366-4.182,68.366l-6.6-1.93C216.6,343.322,223.03,324.662,225.925,315.493Z" transform="translate(-157.856 -234.901)" fill="#e1f3ff"/>
            <path id="Path_59" data-name="Path 59" d="M217.444,297.985c1.77-8.043,4.5-20.751,13.191-30.081,13.673-14.638,36.194-15.6,36.194-15.6s.643,22.681-13.191,37.159c-7.56,7.882-22.2,12.869-30.4,14.8a8.034,8.034,0,0,0-6.274,7.4,655.282,655.282,0,0,0,.965,98.126l-7.882-1.609C207.953,349.139,215.031,309.084,217.444,297.985Z" transform="translate(-160.313 -252.3)" fill="#00aeef"/>
            <path id="Path_60" data-name="Path 60" d="M213.394,341a26.678,26.678,0,0,0-4.665-11.26,16.575,16.575,0,0,0-4.022-4.182c-6.917-4.826-16.408-3.378-16.408-3.378s1.609,9.491,8.365,14.317c4.022,2.9,9.008,3.539,12.386,3.539a3.742,3.742,0,0,1,3.7,3.7c-.161,10.939-2.413,25.9-2.413,25.9l4.343-.8C215.968,358.693,214.52,347.111,213.394,341Z" transform="translate(-173.315 -209.896)" fill="#00aeef"/>
            <path id="Path_61" data-name="Path 61" d="M235.825,313s-8.847,3.7-12.065,11.582c-1.769,4.343-.8,10.939-.483,13.351a4.59,4.59,0,0,1,0,2.091L219.9,369.141h5.308a119.02,119.02,0,0,1-.322-24.934,7.67,7.67,0,0,1,2.9-5.308c2.735-1.93,6.756-5.308,8.365-9.33C239.525,321.847,235.825,313,235.825,313Z" transform="translate(-154.082 -215.357)" fill="#00aeef"/>
            <path id="Path_62" data-name="Path 62" d="M211.864,396h21.073a4.283,4.283,0,0,0,1.93-.483,26.084,26.084,0,0,0,13.673-23V352.082a4.259,4.259,0,0,0-4.182-4.182H200.282a4.259,4.259,0,0,0-4.182,4.182v20.429a26.208,26.208,0,0,0,13.673,23A4.453,4.453,0,0,0,211.864,396Z" transform="translate(-168.567 -194.116)" fill="#5968f6"/>
            <rect id="Rectangle_21" data-name="Rectangle 21" width="52.441" height="12.547" transform="translate(27.533 165.687)" fill="#e1e1ff"/>
            <rect id="Rectangle_22" data-name="Rectangle 22" width="52.441" height="3.056" transform="translate(27.533 165.687)" fill="#fff0f2"/>
          </g>
          <rect id="Rectangle_23" data-name="Rectangle 23" width="4.631" height="95.32" transform="translate(153.485 -1.569) rotate(10.614)" fill="#fff"/>
          <path id="Path_63" data-name="Path 63" d="M352.472,210.552c-19.3-12.349-44.186,5.982-63.1-8.876a3.312,3.312,0,0,1-1.158-2.894l6.946-36.854A2.948,2.948,0,0,1,299.6,160c19.3,12.349,44.186-5.982,63.1,8.876a3.312,3.312,0,0,1,1.158,2.894c-2.315,12.349-4.631,24.7-6.946,36.854A2.866,2.866,0,0,1,352.472,210.552Z" transform="translate(-139.125 -177.198)" fill="#f37434"/>
          <path id="Path_64" data-name="Path 64" d="M287.567,205.362a3.35,3.35,0,0,0-1.737,2.122c-.193.386-.193.579,0,.772a2.477,2.477,0,0,1-.772,1.93,4.2,4.2,0,0,0-.965,1.544,4.815,4.815,0,0,0-.193,3.28,5.508,5.508,0,0,1,0,2.508,2.177,2.177,0,0,0,.193,1.544,2.248,2.248,0,0,0,3.087.965,2.08,2.08,0,0,0,1.158-2.123,2.068,2.068,0,0,1,.386-1.158l.193-.193a2.868,2.868,0,0,0,.386-1.737,1.293,1.293,0,0,1,.579-1.544,3.924,3.924,0,0,0,1.158-1.737,1.632,1.632,0,0,0,0-1.351,1.293,1.293,0,0,1,.579-1.544,2.446,2.446,0,0,0,.772-1.737C292.005,205.169,288.725,204.59,287.567,205.362Z" transform="translate(-143.298 -134.96)" fill="#fab9af"/>
          <path id="Path_65" data-name="Path 65" d="M280.094,212.7h0c.579-.965,1.158-1.93,1.737-2.7l2.508-2.7c1.737-1.737,2.7-3.087,4.824-3.28,3.473-.386,8.1-.579,8.3,1.351.193,1.737-4.245,2.894-6.946,3.28a2.355,2.355,0,0,0-1.737,1.544s1.351,10.034-4.052,10.42l-1.351,3.666-6.174-.965,1.351-6.175A29.985,29.985,0,0,1,280.094,212.7Z" transform="translate(-149.332 -136.128)" fill="#fab9af"/>
          <path id="Path_66" data-name="Path 66" d="M278.258,233.461s-14.471-5.789-19.681,3.473c-5.4,9.455,2.508,34.346-16.594,37.819-19.3,3.473-21.225,22.576-19.681,31.066,4.438,24.312,39.556,48.625,63.868,22.962s-5.789-43.029-8.1-55.957C275.557,259.9,290.8,242.722,278.258,233.461Z" transform="translate(-200.751 -110.19)" fill="#5046af"/>
          <path id="Path_67" data-name="Path 67" d="M270.169,275.636c-.193-10.034,19.874-20.453-.965-40.713a1.755,1.755,0,0,0-2.123-.193c-1.737,1.351-7.139,2.123-10.034,4.631-5.21,4.631-13.314,17.366-10.805,23.733,5.4,13.7-3.666,25.47-4.438,40.906-.579,16.015,25.47,31.837,38.012,27.4a13.554,13.554,0,0,0,8.49-8.683,11.378,11.378,0,0,0-.772-9.069h0C282.518,304.386,270.555,308.824,270.169,275.636Z" transform="translate(-182.242 -107.6)" fill="#41378c"/>
          <path id="Path_68" data-name="Path 68" d="M287.45,373.112a234.006,234.006,0,0,0,1.158-76.024,14.759,14.759,0,0,0-13.121-12.349h0a15.707,15.707,0,0,0-17.173,16.4A98.18,98.18,0,0,0,260.243,316c4.438,22.383,11.963,130.244,11.963,130.244a3.76,3.76,0,0,1-.193,1.544,9.424,9.424,0,0,1-1.737,3.473c-1.544,2.123-.579,3.666,2.7,6.367,2.7,2.123,1.351,5.982,4.052,6.367,3.859.579,6.56.386,6.946-.579.386-1.351-.579-1.544-3.859-3.087-2.508-1.351-2.894-9.069-2.894-12.156a9.394,9.394,0,0,1,.193-2.315Z" transform="translate(-166.914 -60.938)" fill="#fab9af"/>
          <path id="Path_69" data-name="Path 69" d="M275.8,378.551c6.175-18.331,17.173-77.182,14.857-93.583L275.8,283.81a16.239,16.239,0,0,0-16.4,11.577c-3.28,10.805-6.368,28.75-3.473,55.185,0,0,2.315,14.279,0,23.54-2.123,8.3-13.7,60.395-15.822,69.85a21.838,21.838,0,0,1-1.158,3.087,6.764,6.764,0,0,1-2.315,2.7c-2.122,1.737-1.544,3.473.965,6.753,2.123,2.7-.193,6.174,2.508,7.332,3.666,1.544,6.174,1.93,6.753,1.158.772-1.158-.193-1.544-3.087-4.052-1.158-.965-.965-4.245-.579-7.332a29.261,29.261,0,0,1,2.894-9.648C252.064,431.421,270.587,393.794,275.8,378.551Z" transform="translate(-188.256 -61.747)" fill="#fab9af"/>
          <path id="Path_70" data-name="Path 70" d="M298.513,389.157q-25.759,6.657-54.413,0c1.544-7.139,2.894-12.928,3.473-15.243,2.315-9.262,0-23.54,0-23.54-2.894-26.242.193-44.38,3.473-55.185a16.239,16.239,0,0,1,16.4-11.577l14.857,1.158h0l6.175.579A15.152,15.152,0,0,1,301.6,297.7a233.926,233.926,0,0,1-1.158,76.024Z" transform="translate(-180.1 -61.933)" fill="#6469d4"/>
          <path id="Path_71" data-name="Path 71" d="M252.922,348.929c-1.929,4.438-3.666,9.069-5.4,13.7-.193-6.56-.965-12.156-.965-12.156-2.894-26.242.193-44.38,3.473-55.185a16.239,16.239,0,0,1,16.4-11.577l5.4.386h0l9.455.772h0l6.174.579A15.152,15.152,0,0,1,300.582,297.8c.386,2.315.772,5.21,1.158,8.1C277.041,305.128,261.8,327.9,252.922,348.929Z" transform="translate(-178.888 -61.84)" fill="#5159bf"/>
          <path id="Path_72" data-name="Path 72" d="M314.962,256.36c2.315-11.577,4.631-41.485,4.631-41.485-1.158-1.544-5.982-3.666-7.525-1.544l-9.455,41.1c-10.227,12.928-18.717,24.7-22.576,30.487a9.374,9.374,0,0,1-6.56,3.859,101.641,101.641,0,0,0-16.594,2.508c-25.277,6.561-14.857,15.822-14.857,15.822a40.824,40.824,0,0,1,7.525,10.612c3.28,6.946,7.332,15.822,9.841,21.032.965,3.28-1.93,13.121-3.087,16.208l-2.315,6.946a2.007,2.007,0,0,0,1.158,2.508c11.384,3.859,34.346,4.438,49.01-.193a2.546,2.546,0,0,0,1.544-3.859L294.894,330.84c-2.894-6.175-2.315-7.718-.386-11.384a8.22,8.22,0,0,0,.772-6.753,31.721,31.721,0,0,0-2.894-5.789,9.312,9.312,0,0,1,.772-10.805C301.455,285.689,312.839,267.165,314.962,256.36Z" transform="translate(-184.006 -128.072)" fill="#00aeef"/>
          <path id="Path_73" data-name="Path 73" d="M251.092,234.289c-7.525,2.123-8.876,8.3-6.175,18.331a19.807,19.807,0,0,0,5.789,8.876,7.728,7.728,0,0,1,2.315,5.6l-.193,6.175c.386,5.6,3.666,7.718,7.525,7.718a7.5,7.5,0,0,0,5.4-2.508c1.544-1.737.965-4.438,0-6.56l-.965-1.544a4.183,4.183,0,0,1,1.544-5.789,14.661,14.661,0,0,0,4.245-3.28c.965-1.158,1.544-10.034-2.508-19.1C263.827,232.745,258.617,232.166,251.092,234.289Z" transform="translate(-180.531 -108.702)" fill="#fab9af"/>
          <path id="Path_74" data-name="Path 74" d="M258.817,247.525a1.8,1.8,0,0,1-1.158,2.508h0a1.777,1.777,0,0,1-2.123-1.351l-1.737-7.525a1.16,1.16,0,0,1,.193-.772c.193-.193.386-.386.579-.386a1.474,1.474,0,0,1,.965.386Z" transform="translate(-171.083 -102.45)" fill="#fa968c"/>
          <path id="Path_75" data-name="Path 75" d="M249.44,245.327c.579,2.315,1.351,5.21-.579,5.789-2.122.579-5.21-3.087-5.789-5.4s.579-3.28,2.508-3.859S248.861,243.012,249.44,245.327Z" transform="translate(-181.194 -100.831)" fill="#fab9af"/>
          <path id="Path_76" data-name="Path 76" d="M242.979,244.027c6.175-11.77,19.3-15.629,25.856-11.577,3.666,2.123,8.49,11.577.579,11.77a10.373,10.373,0,0,1-5.4-1.544,2.868,2.868,0,0,0-1.737-.386l-5.21,1.737a8.1,8.1,0,0,0-5.017,10.42l.579,1.544a.983.983,0,0,1-1.351,1.158l-.386-.579a6.255,6.255,0,0,0-3.859-3.087C243.558,252.324,239.313,250.973,242.979,244.027Z" transform="translate(-182.452 -110.916)" fill="#5046af"/>
          <path id="Path_77" data-name="Path 77" d="M254.791,317.657a35.489,35.489,0,0,0-2.894-4.438c-.193-.193-1.158-.772-1.351-.965-.772-.579-1.93-1.158-2.122-2.122l-1.351-3.473c-.579-1.737-1.93-2.7-3.666-1.93h0c-1.737.772-2.122,2.508-1.158,4.245l.965,2.508a8.672,8.672,0,0,1,.772,4.438c.193,3.087,2.122,6.175,4.052,8.49,1.158,1.544,3.666,1.737,6.946,1.737,1.544,0,4.245-.386,2.7-1.737-1.351-1.158-6.174-1.544-6.753-6.56,0-.193,0-.772.193-.965.772-.386,1.737,1.544,2.315,2.122a2.749,2.749,0,0,0,2.508.965C256.528,319.587,255.563,319.008,254.791,317.657Z" transform="translate(-182.301 -42.531)" fill="#fab9af"/>
          <path id="Path_96" data-name="Path 96" d="M250.18,257.776c2.508-2.508,8.3-3.28,13.7-2.122,5.21.965-5.982,36.854-16.208,53.641a7.338,7.338,0,0,0-.965,5.982l11,38.977c-1.351,2.7-3.666,3.087-6.175,3.473l-18.524-40.521a18.865,18.865,0,0,1-1.158-12.156C235.322,292.508,242.847,265.494,250.18,257.776Z" transform="translate(-191.968 -88.389)" fill="#00aeef"/>
          <g id="Group_123" data-name="Group 123" transform="translate(282.231 108.413)">
            <path id="Path_97" data-name="Path 97" d="M416.165,366.215l2.894,11.384.579,1.158,2.122,3.087a3.366,3.366,0,0,1-1.93,5.21s-4.245,1.544-8.49,2.894c-4.438,1.351-9.841.193-9.841-.965,0-2.508,2.315-.579,6.367-3.28l4.052-2.894c3.473-2.7.386-9.648-1.737-13.507-.772-1.351,0-4.824,1.544-5.21l.965-.193A3.375,3.375,0,0,1,416.165,366.215Z" transform="translate(-316.021 -95.693)" fill="#fab9af"/>
            <path id="Path_98" data-name="Path 98" d="M412.967,321.768c-.772-2.122-1.544-4.245-1.93-5.21a8.4,8.4,0,0,0-1.158-1.351,9.812,9.812,0,0,1-1.737-2.508l-.579-3.666c-.193-1.737-1.351-3.087-3.087-2.7h0c-1.93.386-2.508,2.123-2.122,4.052l.386,2.7a9.43,9.43,0,0,1-.193,4.631c-.386,3.28.772,6.753,2.122,9.455.772,1.737,3.28,2.508,6.56,3.28,1.544.386,4.245.579,2.894-1.158-.965-1.351-5.982-2.894-5.21-7.911,0-.193.193-.965.386-.965.965-.193,1.351,1.737,1.929,2.7.772,1.351,1.93,1.737,2.508,1.544C414.317,324.084,413.546,323.312,412.967,321.768Z" transform="translate(-315.332 -149.267)" fill="#fab9af"/>
            <path id="Path_99" data-name="Path 99" d="M454.372,258.2c-5.21,16.208-18.331,46.7-37.819,57.5-13.121,7.332-44.958,18.138-44.958,18.138s-.965-1.351-1.737-2.508a10.154,10.154,0,0,1-1.158-2.894s39.556-20.26,44.958-26.242c5.21-5.789,22.961-43.415,28.364-49.2C448,246.234,457.266,249.128,454.372,258.2Z" transform="translate(-346.51 -202.24)" fill="#00aeef"/>
            <path id="Path_100" data-name="Path 100" d="M404.2,339.418l12.349-87.987,33.767-4.631,17.752,91.846Z" transform="translate(-313.512 -204.543)" fill="#fab9af"/>
            <path id="Path_101" data-name="Path 101" d="M449.88,365.119l3.473,11.384a9.417,9.417,0,0,0,.579,1.351l2.508,3.666a4.091,4.091,0,0,1-2.123,6.175s-4.824,1.737-9.841,3.28c-5.21,1.737-11.577.193-11.577-1.158,0-3.087,2.894-.579,7.525-3.859a39.956,39.956,0,0,0,4.631-3.28c4.052-3.28.579-11.191-1.93-15.822a2.74,2.74,0,0,1,1.93-4.052l1.158-.193A3.543,3.543,0,0,1,449.88,365.119Z" transform="translate(-286.834 -96.912)" fill="#fab9af"/>
            <path id="Path_102" data-name="Path 102" d="M449.912,296.687,412.479,293.6s-13.314,47.467-16.787,68.692c-2.508,15.243,20.646,74.287,20.646,74.287,2.315.965,4.438-.193,6.946-.772,0,0-6.946-52.1-4.631-64.833,2.508-13.314,22.383-40.134,23.733-47.081A150.9,150.9,0,0,1,449.912,296.687Z" transform="translate(-321.597 -161.04)" fill="#5046af"/>
            <path id="Path_103" data-name="Path 103" d="M422.464,299.9c-3.859,20.646-12.542,51.712,4.052,80.848s34.153,59.43,34.153,59.43a10.392,10.392,0,0,0,6.175-2.122s-2.894-13.121-7.139-28.557c-4.824-17.559-11-38.4-9.262-49.2,3.28-20.26,6.946-47.274,5.789-60.395C455.266,286.588,424.393,288.9,422.464,299.9Z" transform="translate(-301.868 -163.676)" fill="#5046af"/>
            <path id="Path_104" data-name="Path 104" d="M405.284,340.576a3,3,0,0,1-1.737-3.473l13.893-85.672,33.767-4.631,18.138,90.5a3.087,3.087,0,0,1-2.508,3.666,220.44,220.44,0,0,1-38.4,3.666C415.7,344.628,408.565,342.12,405.284,340.576Z" transform="translate(-314.21 -204.543)" fill="#d2f0ff"/>
            <path id="Path_105" data-name="Path 105" d="M424.635,269.1c4.052,11.191,10.612,33.188,6.946,52.484-5.21,27.207-12.156,38.2-3.28,44.572s25.663-4.245,26.242-7.718-3.28-46.888-7.525-65.6-16.208-45.73-16.208-45.73l-6.175.579C424.442,247.486,422.705,263.887,424.635,269.1Z" transform="translate(-295.355 -204.264)" fill="#00aeef"/>
            <path id="Path_106" data-name="Path 106" d="M426.992,248.8s-2.7,12.156-.579,30.487c2.122,18.138,6.753,73.516-9.841,82.006-5.21,2.7-17.173-11-17.173-13.507,0-4.438,4.052-18.91,7.718-32.223,3.087-10.613,6.175-46.116,7.139-59.816a6.577,6.577,0,0,1,5.789-5.982Z" transform="translate(-317.973 -202.684)" fill="#00aeef"/>
            <g id="Group_121" data-name="Group 121" transform="translate(95.126)">
              <path id="Path_107" data-name="Path 107" d="M433.823,229.543a13.207,13.207,0,0,0,2.508,8.876c3.087,3.666-1.351,7.139-2.508,9.648-.965,2.508.193,6.368-2.7,8.1s-11.191,2.122-12.542-.772C417.228,252.118,424.368,227.806,433.823,229.543Z" transform="translate(-395.425 -220.667)" fill="#41378c"/>
              <path id="Path_108" data-name="Path 108" d="M409.1,240.529c-.386,16.594,15.05,19.874,24.119,19.874s9.455-19.874,9.455-27.207c0-7.139-7.139-8.3-16.015-8.3-7.139,0-13.893,5.6-16.594,10.805C409.1,237.056,409.1,238.986,409.1,240.529Z" transform="translate(-404.087 -224.9)" fill="#41378c"/>
              <path id="Path_109" data-name="Path 109" d="M424.842,228.2c7.525,0,10.419,5.4,10.419,15.243a21.863,21.863,0,0,1-2.894,9.841,7.6,7.6,0,0,0-.772,5.789l1.737,5.6c1.158,5.21-1.351,8.1-5.017,9.069a6.488,6.488,0,0,1-5.6-.965c-1.93-1.158-2.123-3.859-1.737-5.982l.386-1.544a4.025,4.025,0,0,0-2.894-5.017c-5.789-1.351-6.56-7.332-8.1-16.787C409.019,233.8,417.316,228.2,424.842,228.2Z" transform="translate(-403.038 -221.832)" fill="#fab9af"/>
              <path id="Path_110" data-name="Path 110" d="M410.745,226.458l4.245,1.351a6.917,6.917,0,0,0,4.824,0L428.5,225.3c5.21,0,13.893,2.894,12.735,10.42l-.965,5.4a4.713,4.713,0,0,1-4.245,3.859h0a1.617,1.617,0,0,1-1.544,1.158,1.729,1.729,0,0,1-1.737-1.737h0a5.334,5.334,0,0,0-4.052-5.017,21.4,21.4,0,0,0-9.262,0c-5.982,1.544-12.349-2.123-12.928-8.3v-1.158C406.693,227.808,408.622,225.879,410.745,226.458Z" transform="translate(-406.5 -224.528)" fill="#41378c"/>
              <path id="Path_111" data-name="Path 111" d="M421.1,238.152c0,2.315.772,4.245,3.087,4.245,2.122,0,3.666-3.087,3.666-5.4s-1.351-2.894-3.666-2.894C422.065,234.1,421.1,235.837,421.1,238.152Z" transform="translate(-392.929 -216.348)" fill="#fab9af"/>
              <path id="Path_112" data-name="Path 112" d="M411.614,243.611a1.743,1.743,0,0,0,1.737,2.122h0a1.7,1.7,0,0,0,1.737-1.544v-7.332a1.463,1.463,0,0,0-.386-.772,1,1,0,0,0-.772-.386c-.386,0-.772.193-.772.579Z" transform="translate(-401.774 -214.861)" fill="#fa968c"/>
            </g>
            <path id="Path_113" data-name="Path 113" d="M422.325,255.6a1.282,1.282,0,0,1,.965.772c1.158,3.666,6.367,20.646,7.525,29.908.965,7.525-2.122,20.646-3.859,27.4a10.6,10.6,0,0,1-4.824,6.368l-1.158.772a2.178,2.178,0,0,1-2.894-.772l-.772-1.93a5.393,5.393,0,0,1-.386-4.245c2.122-5.4,7.139-19.488,6.56-28.75-.193-3.28-3.28-23.348-4.245-28.364a.966.966,0,0,1,.965-1.158Z" transform="translate(-301.922 -196.363)" fill="#afe6ff"/>
            <path id="Path_114" data-name="Path 114" d="M422.359,254.393a1.282,1.282,0,0,1,.965.772c1.158,3.666,5.982,20.839,6.946,30.1.772,7.525-2.508,20.646-4.438,27.207a10.376,10.376,0,0,1-4.824,6.175l-1.158.579a2.178,2.178,0,0,1-2.894-.772l-.965-1.737a4.714,4.714,0,0,1-.193-4.245c2.123-5.21,7.525-19.3,7.332-28.557,0-3.28-2.894-23.347-3.473-28.557a1.081,1.081,0,0,1,.965-1.158Z" transform="translate(-303.114 -197.664)" fill="#5159bf"/>
            <path id="Path_115" data-name="Path 115" d="M417.965,257.3h3.28a.911.911,0,0,0,.965-.965v-3.28a.912.912,0,0,0-.965-.965l-2.894-.386A1.639,1.639,0,0,0,417,253.051v3.28A1.034,1.034,0,0,0,417.965,257.3Z" transform="translate(-301.613 -199.988)" fill="#5159bf"/>
            <path id="Path_116" data-name="Path 116" d="M424.786,246.7l5.4.965s-1.158,8.876-5.4,15.436a.933.933,0,0,1-1.351,0l-3.859-5.4a1.737,1.737,0,0,1,0-2.123Z" transform="translate(-299.559 -204.636)" fill="#fff"/>
            <g id="Group_26086" data-name="Group 26086" transform="matrix(0.883, 0.469, -0.469, 0.883, -267.299, -601.643)">
              <g id="Group_26023" data-name="Group 26023" transform="translate(416.477 403.931)">
                <g id="Group_26022" data-name="Group 26022" transform="translate(0 0)">
                  <path id="Path_71234" data-name="Path 71234" d="M658.752,405.374l21.47,102.746a1.813,1.813,0,0,1-1.4,2.146L440.131,560.142a1.813,1.813,0,0,1-2.146-1.4l-21.47-102.746a1.813,1.813,0,0,1,1.4-2.146L656.606,403.97A1.813,1.813,0,0,1,658.752,405.374Z" transform="translate(-416.477 -403.931)" fill="#fff"/>
                  <g id="Group_26015" data-name="Group 26015" transform="translate(8.131 7.466)">
                    <path id="Path_71235" data-name="Path 71235" d="M687.783,445.658,464.1,492.4c-1.305.273-2.485,1.233-2.212,2.54l18.783,89.889a2.834,2.834,0,0,0,3.148,1.94L707.5,540.027a2.323,2.323,0,0,0,1.553-2.922l-18.783-89.889A1.908,1.908,0,0,0,687.783,445.658Zm19.869,91.74c.088.419.044,1.124-.443,1.226L483.53,585.363a1.439,1.439,0,0,1-1.451-.83L463.3,494.644c-.072-.346.523-.723,1.1-.843l223.679-46.74c.6-.126.709.048.793.448Z" transform="translate(-461.853 -445.593)" fill="#1e2d64"/>
                  </g>
                  <g id="Group_26016" data-name="Group 26016" transform="translate(22.106 42.202)">
                    <path id="Path_71236" data-name="Path 71236" d="M548.391,758.172a6.064,6.064,0,0,0-4.086-.251l-4.464.933,2.924,14,2.924-.611-1.048-5.013,1.31-.274a6.163,6.163,0,0,0,3.753-2.059,4.351,4.351,0,0,0,.69-3.74A4.06,4.06,0,0,0,548.391,758.172Zm-1.324,5.38a3.31,3.31,0,0,1-1.935.955l-1.013.212-.873-4.178,1.385-.289a2.719,2.719,0,0,1,1.894.153,2,2,0,0,1,.891,1.428A1.941,1.941,0,0,1,547.067,763.553Z" transform="translate(-539.842 -736.508)" fill="#00aeef"/>
                    <path id="Path_71237" data-name="Path 71237" d="M625.988,739.58l-3.622.757L620.4,755.571l3.192-.667.315-3.554L629,750.286l1.711,3.13,3.192-.667Zm-1.857,9.108c.3-3.55.5-5.6.535-6.456.1.219.252.527.453.9s1.062,1.86,2.653,4.8Z" transform="translate(-605.966 -721.635)" fill="#00aeef"/>
                    <path id="Path_71238" data-name="Path 71238" d="M693.92,720.255l-1.712,6.361-4.1-5.148-3.213.671,6.5,7.573,1.136,5.437,2.924-.611-1.156-5.533,2.811-9.419Z" transform="translate(-658.905 -705.225)" fill="#00aeef"/>
                    <path id="Path_71239" data-name="Path 71239" d="M774.958,715.062a5.985,5.985,0,0,1,.185-3.695,3.089,3.089,0,0,1,2.327-1.8,4.836,4.836,0,0,1,1.616-.048,16.433,16.433,0,0,1,1.713.32l.454-2.608a9.617,9.617,0,0,0-4.3-.129,6.866,6.866,0,0,0-3.3,1.6,5.861,5.861,0,0,0-1.756,2.99,8.856,8.856,0,0,0,.006,3.984,7.989,7.989,0,0,0,2.724,4.97,5.866,5.866,0,0,0,5,.887,9.509,9.509,0,0,0,3.639-1.508l-.519-2.486a10.352,10.352,0,0,1-3.36,1.469C777.052,719.5,775.609,718.176,774.958,715.062Z" transform="translate(-730.133 -694.826)" fill="#00aeef"/>
                    <path id="Path_71240" data-name="Path 71240" d="M851.48,688.028l1.135,5.431-5.431,1.135-1.135-5.431-3.133.655,2.924,13.995,3.133-.655-1.266-6.058,5.431-1.135,1.266,6.058,2.924-.611-2.924-14Z" transform="translate(-788.606 -678.819)" fill="#00aeef"/>
                    <path id="Path_71241" data-name="Path 71241" d="M941.09,675.1l-.48-2.3-7.937,1.659,2.924,14,7.938-1.659-.524-2.507L938,685.338l-.742-3.551,4.8-1-.524-2.507-4.8,1-.655-3.133Z" transform="translate(-862.279 -666.823)" fill="#00aeef"/>
                    <path id="Path_71242" data-name="Path 71242" d="M1005.692,666.848a5.969,5.969,0,0,1,.187-3.7,3.083,3.083,0,0,1,2.327-1.8,4.824,4.824,0,0,1,1.614-.047,16.226,16.226,0,0,1,1.713.32l.454-2.608a9.612,9.612,0,0,0-4.3-.129,6.866,6.866,0,0,0-3.3,1.6,5.843,5.843,0,0,0-1.754,2.989,8.83,8.83,0,0,0,0,3.984,8,8,0,0,0,2.724,4.97,5.883,5.883,0,0,0,5.005.886,9.542,9.542,0,0,0,3.646-1.51l-.519-2.486a10.383,10.383,0,0,1-3.364,1.47C1007.792,671.286,1006.343,669.963,1005.692,666.848Z" transform="translate(-919.521 -655.253)" fill="#00aeef"/>
                    <path id="Path_71243" data-name="Path 71243" d="M1081.416,646.65l3.579-7.213-3.288.687-2.752,5.494-.782,1.841-1.321-6.321-3.133.655,2.924,14,3.133-.655-1.062-5.084,1.026-1.1,4.854,5.179,3.363-.7Z" transform="translate(-978.051 -639.437)" fill="#00aeef"/>
                  </g>
                  <path id="Path_71244" data-name="Path 71244" d="M1471.54,921.506a.806.806,0,0,1-.624.954l-62.971,13.158a.807.807,0,0,1-.954-.625h0a.806.806,0,0,1,.624-.954l62.971-13.158a.806.806,0,0,1,.954.625Z" transform="translate(-1229.481 -828.232)" fill="#00aeef"/>
                  <g id="Group_26017" data-name="Group 26017" transform="translate(29.661 51.828)">
                    <path id="Path_71245" data-name="Path 71245" d="M676.078,821.668a1.928,1.928,0,0,1-1.483,2.229l-90.351,18.88A1.88,1.88,0,0,1,582,841.324h0a2.05,2.05,0,0,1,1.46-2.23l90.363-18.88a1.892,1.892,0,0,1,2.255,1.453Z" transform="translate(-582 -797.414)" fill="#1e2d64"/>
                    <path id="Path_71246" data-name="Path 71246" d="M777.689,786.947a1.882,1.882,0,0,1-1.457,2.227l-178.038,37.2a1.881,1.881,0,0,1-2.227-1.457h0a1.882,1.882,0,0,1,1.457-2.227l178.038-37.2a1.882,1.882,0,0,1,2.227,1.457Z" transform="translate(-593.431 -768.912)" fill="#1e2d64"/>
                    <path id="Path_71247" data-name="Path 71247" d="M1242.767,694.656a1.882,1.882,0,0,1-1.457,2.227l-99.28,20.745a1.881,1.881,0,0,1-2.226-1.457h0a1.881,1.881,0,0,1,1.457-2.227l99.28-20.745a1.882,1.882,0,0,1,2.227,1.457Z" transform="translate(-1039.814 -693.159)" fill="#1e2d64"/>
                  </g>
                  <rect id="Rectangle_6370" data-name="Rectangle 6370" width="32.434" height="12.723" rx="6.361" transform="translate(35.587 124.061) rotate(-11.803)" fill="#00aeef"/>
                  <g id="Group_26021" data-name="Group 26021" transform="translate(191.509 20.673)">
                    <g id="Group_26018" data-name="Group 26018" transform="translate(0 5.584)">
                      <path id="Path_71248" data-name="Path 71248" d="M1491.421,572.556a6.129,6.129,0,0,1-4.569-1.132.581.581,0,1,1,.7-.929,4.754,4.754,0,0,0,4.232.742,2.968,2.968,0,0,0,2.109-2.646,2.117,2.117,0,0,0-.928-1.626,1.83,1.83,0,0,0-1.715-.076c-1.9.766-3.132.993-4.548.1a2.9,2.9,0,0,1-1.238-3.784,3.573,3.573,0,0,1,2.212-1.841,5.611,5.611,0,0,1,4.536.314.581.581,0,0,1-.563,1.016,4.435,4.435,0,0,0-3.583-.235,2.526,2.526,0,0,0-1.523,1.18,1.743,1.743,0,0,0,.778,2.368c.827.521,1.5.608,3.5-.2a2.983,2.983,0,0,1,2.769.172,3.269,3.269,0,0,1,1.467,2.537,4.036,4.036,0,0,1-2.834,3.795A4.672,4.672,0,0,1,1491.421,572.556Z" transform="translate(-1485.195 -559.137)" fill="#5d90c1"/>
                      <path id="Path_71249" data-name="Path 71249" d="M1504.69,565.5l-.015,0a.58.58,0,0,1-.675-.468l-2.52-13.887a.57.57,0,0,1,.468-.675.58.58,0,0,1,.675.468l2.52,13.887A.581.581,0,0,1,1504.69,565.5Z" transform="translate(-1498.554 -550.461)" fill="#5d90c1"/>
                    </g>
                    <g id="Group_26019" data-name="Group 26019" transform="translate(13.389 2.792)">
                      <path id="Path_71250" data-name="Path 71250" d="M1566.139,556.975a6.13,6.13,0,0,1-4.569-1.132.581.581,0,0,1,.7-.929,4.755,4.755,0,0,0,4.232.742,2.968,2.968,0,0,0,2.109-2.647,2.118,2.118,0,0,0-.928-1.626,1.83,1.83,0,0,0-1.715-.076c-1.9.766-3.132.993-4.548.1a2.9,2.9,0,0,1-1.238-3.784,3.574,3.574,0,0,1,2.212-1.841,5.609,5.609,0,0,1,4.535.314.581.581,0,1,1-.563,1.016,4.435,4.435,0,0,0-3.583-.235,2.525,2.525,0,0,0-1.523,1.179,1.743,1.743,0,0,0,.778,2.368c.827.521,1.5.608,3.5-.2a2.984,2.984,0,0,1,2.769.172,3.269,3.269,0,0,1,1.467,2.537,4.036,4.036,0,0,1-2.834,3.8A4.7,4.7,0,0,1,1566.139,556.975Z" transform="translate(-1559.914 -543.556)" fill="#5d90c1"/>
                      <path id="Path_71251" data-name="Path 71251" d="M1579.408,549.917l-.015,0a.58.58,0,0,1-.675-.468l-2.52-13.887a.571.571,0,0,1,.468-.675.58.58,0,0,1,.675.468l2.52,13.887A.58.58,0,0,1,1579.408,549.917Z" transform="translate(-1573.272 -534.88)" fill="#5d90c1"/>
                    </g>
                    <g id="Group_26020" data-name="Group 26020" transform="translate(26.778)">
                      <path id="Path_71252" data-name="Path 71252" d="M1640.858,541.394a6.129,6.129,0,0,1-4.569-1.132.581.581,0,1,1,.7-.929,4.754,4.754,0,0,0,4.232.742,2.968,2.968,0,0,0,2.109-2.647,2.117,2.117,0,0,0-.928-1.625,1.83,1.83,0,0,0-1.715-.076c-1.9.766-3.132.993-4.548.1a2.9,2.9,0,0,1-1.237-3.784,3.574,3.574,0,0,1,2.212-1.841,5.61,5.61,0,0,1,4.536.314.581.581,0,0,1-.563,1.016,4.435,4.435,0,0,0-3.583-.235,2.527,2.527,0,0,0-1.523,1.179,1.743,1.743,0,0,0,.778,2.368c.827.521,1.5.608,3.5-.2a2.983,2.983,0,0,1,2.769.172,3.269,3.269,0,0,1,1.467,2.537,4.036,4.036,0,0,1-2.834,3.8A4.694,4.694,0,0,1,1640.858,541.394Z" transform="translate(-1634.632 -527.976)" fill="#5d90c1"/>
                      <path id="Path_71253" data-name="Path 71253" d="M1654.127,534.336l-.015,0a.581.581,0,0,1-.675-.468l-2.52-13.887a.57.57,0,0,1,.468-.675.58.58,0,0,1,.675.468l2.52,13.887A.581.581,0,0,1,1654.127,534.336Z" transform="translate(-1647.99 -519.299)" fill="#5d90c1"/>
                    </g>
                  </g>
                </g>
              </g>
              <g id="Group_26024" data-name="Group 26024" transform="translate(598.403 485.34)">
                <path id="Path_71255" data-name="Path 71255" d="M1432.767,889.952a56.568,56.568,0,0,1,17.464-25.582c1.559-1.321,3.2-2.561,4.825-3.8.732-.559,3.045-2.273,3.407-.446.261,1.321-.667,2.992-1.24,4.122-.672,1.326-1.45,2.612-2.222,3.88-1.477,2.426-3.588,5.551-6.606,6.085-.612.108-.62-.022-.288-.537a3.679,3.679,0,0,1,.616-.666,16.333,16.333,0,0,1,2.312-1.731c1.607-1.034,3.625-2.259,5.587-2.365,2.878-.156-.369,4.3-.848,5.29-.215.446.375.845.756.649,2.754-1.42,4.641-4.062,7.141-5.854,1.058-.758,2.4-1.664,3.761-1.559,1.286.1,1.171,2.578,1.343,3.488a.546.546,0,0,0,.772.368c2.818-1.08,4.475-3.934,7.219-5.17.632-.285.139-1.241-.492-.956-2.745,1.236-4.417,4.1-7.219,5.17l.772.368c-.234-1.24-.125-3.024-1.213-3.9-1.145-.922-2.8-.287-3.938.3a18.752,18.752,0,0,0-3.974,2.9c-1.5,1.382-2.824,2.944-4.664,3.893l.756.649c.787-1.628,2.4-3.275,2.042-5.228a1.927,1.927,0,0,0-2.025-1.478,8.782,8.782,0,0,0-3.687,1.052,23.513,23.513,0,0,0-3.85,2.3,6.808,6.808,0,0,0-2.247,2.233c-.708,1.425.482,2.042,1.749,1.817a8.81,8.81,0,0,0,4.577-3.012,30.862,30.862,0,0,0,3.709-5.477,31.6,31.6,0,0,0,1.742-3.357c.487-1.131,1.043-2.621.612-3.852a2.139,2.139,0,0,0-2.873-1.127,17.913,17.913,0,0,0-3.863,2.669,59.981,59.981,0,0,0-19.114,23.7,51.371,51.371,0,0,0-1.819,4.833.538.538,0,0,0,1.02.341Z" transform="translate(-1431.718 -858.232)" fill="#00aeef"/>
              </g>
            </g>
            <path id="Path_117" data-name="Path 117" d="M418.6,247.9l-5.4,1.737s-.193,5.4,4.052,11.77a.933.933,0,0,0,1.351,0l3.087-5.017a2.283,2.283,0,0,0,.193-1.93Z" transform="translate(-305.146 -203.52)" fill="#fff"/>
            <path id="Path_121" data-name="Path 121" d="M401.94,266.478a3.024,3.024,0,0,0,.386-4.245l-1.158-1.544a10.149,10.149,0,0,1-2.315-6.174c0-1.544-.965-5.982-2.508-5.6-1.351.193,0,5.6-1.351,5.4-.579,0-2.894-3.859-4.631-6.175-.965-1.158-2.7-1.93-2.894-.772-.193.772-.965.772-1.737,1.351s-.386,4.438-.386,5.6c0,1.351-.386,1.737,1.544,3.859,1.544,1.737,8.1,5.982,8.1,5.982l2.894,1.929a2.825,2.825,0,0,0,4.052.386Z" transform="translate(-323.126 -190.54)" fill="#fab9af"/>
            <path id="Path_122" data-name="Path 122" d="M404.952,274.974s23.395,20.332,29.762,22.455S454,253.193,457.276,249.334c5.4-6.56,17.173.193,15.05,12.156-2.508,15.05-33.175,52.919-37.613,53.3s-34.586-34.032-34.586-34.032C400.707,278.833,402.25,276.9,404.952,274.974Z" transform="translate(-325.875 -204.569)" fill="#00aeef"/>
          </g>
          <g id="Group_124" data-name="Group 124" transform="translate(170.711 -7.938)">
            <path id="Path_124" data-name="Path 124" d="M315.6,165.951h0a7.233,7.233,0,0,1,2.122.193,14.539,14.539,0,0,1,12.349,16.787,14.919,14.919,0,0,1-14.664,12.542,7.236,7.236,0,0,1-2.123-.193,14.75,14.75,0,0,1,2.315-29.329m0-1.351a16.107,16.107,0,0,0-2.508,32.03,10.194,10.194,0,0,0,2.508.193,16.107,16.107,0,0,0,2.508-32.03,11.867,11.867,0,0,0-2.508-.193Z" transform="translate(-299.404 -164.6)" fill="#fff"/>
          </g>
          <g id="Enerpize_Mark_SVG" transform="translate(180.081 -1.828)">
            <path id="Path_49" data-name="Path 49" d="M597.8,226.875h5.151V219Z" transform="translate(-594.376 -219)" fill="#fff"/>
            <path id="Path_50" data-name="Path 50" d="M613,395.2v7.875l5.151-7.875Z" transform="translate(-608.445 -382.085)" fill="#fff"/>
            <path id="Path_51" data-name="Path 51" d="M561.506,330.04l3.424-5.24h-9.706l-3.424,5.24h9.706Z" transform="translate(-551.8 -316.925)" fill="#fff"/>
          </g>
          <g id="Group_26089" data-name="Group 26089" transform="translate(278.841 330.378)">
            <ellipse id="Ellipse_545" data-name="Ellipse 545" cx="19.477" cy="19.477" rx="19.477" ry="19.477" transform="translate(0 37.922) rotate(-76.785)" fill="#fac855"/>
            <path id="Path_5091" data-name="Path 5091" d="M335.577,146A19.534,19.534,0,0,0,316.1,165.477h19.477Z" transform="translate(-312.235 -142.022)" fill="#ffdc64"/>
            <ellipse id="Ellipse_546" data-name="Ellipse 546" cx="14.121" cy="14.121" rx="14.121" ry="14.121" transform="translate(6.418 33.934) rotate(-76.767)" fill="#ffa50a"/>
            <g id="Group_5927" data-name="Group 5927" transform="translate(17.499 11.282)">
              <path id="Path_5092" data-name="Path 5092" d="M334.563,156.992a1.482,1.482,0,0,1-1.785.325,3.262,3.262,0,0,0-2.11-.649c-1.3,0-2.11.487-2.11,1.785,0,2.6,7.3,2.435,7.3,7.628a5.065,5.065,0,0,1-3.408,5.032,1.414,1.414,0,0,0-.974,1.3v.487a1.28,1.28,0,0,1-1.3,1.3h0a1.28,1.28,0,0,1-1.3-1.3v-.325a1.377,1.377,0,0,0-1.136-1.3,7.458,7.458,0,0,1-2.6-1.136,1.5,1.5,0,0,1-.487-1.948l.325-.487a1.306,1.306,0,0,1,1.785-.487,5.236,5.236,0,0,0,2.922.974c1.623,0,2.272-.649,2.272-1.948,0-2.759-7.3-2.759-7.3-7.791a5,5,0,0,1,3.246-4.869,1.414,1.414,0,0,0,.974-1.3V151.8a1.28,1.28,0,0,1,1.3-1.3h0a1.28,1.28,0,0,1,1.3,1.3v.325a1.414,1.414,0,0,0,.974,1.3,5.345,5.345,0,0,1,2.11,1.136,1.326,1.326,0,0,1,.162,1.948Z" transform="translate(-324.5 -150.5)" fill="#ffdc64"/>
            </g>
          </g>
          <g id="Group_26090" data-name="Group 26090" transform="translate(278.841 279.378)">
            <ellipse id="Ellipse_545-2" data-name="Ellipse 545" cx="19.477" cy="19.477" rx="19.477" ry="19.477" transform="translate(0 37.922) rotate(-76.785)" fill="#fac855"/>
            <path id="Path_5091-2" data-name="Path 5091" d="M335.577,146A19.534,19.534,0,0,0,316.1,165.477h19.477Z" transform="translate(-312.235 -142.022)" fill="#ffdc64"/>
            <ellipse id="Ellipse_546-2" data-name="Ellipse 546" cx="14.121" cy="14.121" rx="14.121" ry="14.121" transform="translate(6.418 33.934) rotate(-76.767)" fill="#ffa50a"/>
            <g id="Group_5927-2" data-name="Group 5927" transform="translate(17.499 11.282)">
              <path id="Path_5092-2" data-name="Path 5092" d="M334.563,156.992a1.482,1.482,0,0,1-1.785.325,3.262,3.262,0,0,0-2.11-.649c-1.3,0-2.11.487-2.11,1.785,0,2.6,7.3,2.435,7.3,7.628a5.065,5.065,0,0,1-3.408,5.032,1.414,1.414,0,0,0-.974,1.3v.487a1.28,1.28,0,0,1-1.3,1.3h0a1.28,1.28,0,0,1-1.3-1.3v-.325a1.377,1.377,0,0,0-1.136-1.3,7.458,7.458,0,0,1-2.6-1.136,1.5,1.5,0,0,1-.487-1.948l.325-.487a1.306,1.306,0,0,1,1.785-.487,5.236,5.236,0,0,0,2.922.974c1.623,0,2.272-.649,2.272-1.948,0-2.759-7.3-2.759-7.3-7.791a5,5,0,0,1,3.246-4.869,1.414,1.414,0,0,0,.974-1.3V151.8a1.28,1.28,0,0,1,1.3-1.3h0a1.28,1.28,0,0,1,1.3,1.3v.325a1.414,1.414,0,0,0,.974,1.3,5.345,5.345,0,0,1,2.11,1.136,1.326,1.326,0,0,1,.162,1.948Z" transform="translate(-324.5 -150.5)" fill="#ffdc64"/>
            </g>
          </g>
        </g>
      </g>
    </g>
  </g>
</svg>
